<svg width="532" height="133" viewBox="0 0 532 133" fill="none" xmlns="http://www.w3.org/2000/svg">
<g clip-path="url(#clip0_27_4)">
<path d="M192.362 49.1873C191.336 48.6912 190.022 48.5673 188.839 48.8561L159.772 55.9495C152.887 51.6377 142.583 46.1603 128.908 41.4923C130.149 39.5573 131.17 37.8961 131.947 36.5461C133.964 33.0437 134.447 31.6591 133.333 30.3634C132.673 29.5961 131.509 29.0929 130.219 29.0181C81.6049 26.1859 53.0866 32.9624 51.8965 33.2518C51.848 33.2637 51.8025 33.2788 51.7551 33.2918C40.7942 35.7582 29.7127 40.9008 19.0889 48.5135C7.67251 56.694 0.806738 64.7683 0.519907 65.1081C-0.172733 65.9289 -0.172733 66.941 0.519907 67.7618C0.806738 68.1016 7.67289 76.1761 19.0889 84.3564C30.192 92.3125 41.7948 97.5707 53.2378 99.8956C56.9764 100.736 76.157 104.672 107.632 104.672C114.774 104.672 122.553 104.469 130.924 103.982C132.216 103.906 133.382 103.402 134.041 102.633C135.182 101.301 134.664 99.8904 132.413 96.0425C131.55 94.5662 130.427 92.7614 129.074 90.6708C141.977 86.1135 152.133 80.8831 159.183 76.6923L188.84 83.9299C189.262 84.0327 189.7 84.0834 190.136 84.0834C190.924 84.0834 191.704 83.9184 192.364 83.5989C193.391 83.1025 194.001 82.2952 194.001 81.434V51.3522C193.999 50.4913 193.388 49.684 192.362 49.1873ZM125.063 34.0615C124.426 35.1974 123.435 36.8578 121.894 39.2656C114.395 37.0599 106.03 35.148 96.8093 33.7856C105.143 33.5414 114.594 33.5695 125.063 34.0615ZM95.1224 99.1285C104.989 97.6377 114.008 95.4723 122.107 92.9736C123.931 95.7962 125.065 97.6873 125.768 98.9388C114.295 99.4768 104.034 99.4553 95.1224 99.1285ZM66.5218 95.9658C59.6417 95.9658 53.0533 94.6226 46.9317 92.499C55.4938 86.3402 61.6305 78.3745 64.3928 69.7295C64.8497 68.3003 63.5292 66.8877 61.4445 66.5747C59.3598 66.2622 57.2993 67.1662 56.8427 68.5959C54.2461 76.7219 48.326 84.159 40.0697 89.727C23.9552 82.2975 12.0826 70.3953 8.40417 66.4357C13.8991 60.5211 37.6545 36.9056 66.5222 36.9056C107.888 36.9056 136.315 49.1421 151.449 57.9817L127.205 63.8981C125.666 64.2737 124.637 65.2733 124.637 66.3942C124.637 67.515 125.666 68.5141 127.205 68.8902L150.743 74.6344C134.593 83.6504 105.41 95.9658 66.5218 95.9658ZM140.025 66.3934L176.964 57.3787L167.408 64.615C166.075 65.6245 166.075 67.162 167.408 68.1712L176.964 75.4077L140.025 66.3934ZM186.27 74.5599L175.486 66.3934L186.27 58.2266V74.5599Z" fill="white"/>
<path d="M62.2417 56.1503C60.1073 56.1503 58.3772 57.3364 58.3772 58.7997C58.3772 59.4023 58.3602 60.0102 58.3261 60.6061C58.2435 62.0683 59.905 63.2998 62.0375 63.3565C62.0886 63.3578 62.1394 63.3583 62.1901 63.3583C64.2556 63.3583 65.9686 62.2387 66.0497 60.8118C66.0872 60.1476 66.1061 59.4706 66.1061 58.7999C66.1061 57.3364 64.3761 56.1503 62.2417 56.1503Z" fill="white"/>
<path d="M35.8854 57.5138C33.2061 57.5138 31.0267 59.008 31.0267 60.8448C31.0267 62.6816 33.2061 64.1763 35.8854 64.1763C38.5646 64.1763 40.7441 62.6818 40.7441 60.8448C40.7441 59.0077 38.565 57.5138 35.8854 57.5138Z" fill="white"/>
<path d="M87.0698 69.0235C86.3374 68.4684 85.2969 68.1517 84.2049 68.1517C83.1133 68.1517 82.0725 68.4684 81.3397 69.023L60.4601 84.8354C59.1271 85.8448 59.1271 87.3824 60.4601 88.3916C63.9907 91.0651 68.716 92.5377 73.765 92.5377C78.8139 92.5377 83.5392 91.0651 87.0698 88.3916C94.1213 83.0521 94.1213 74.3632 87.0698 69.0235ZM81.3404 84.8354C79.2939 86.3854 76.6037 87.239 73.7657 87.239C72.0531 87.239 70.3942 86.9283 68.8983 86.341L83.6817 75.1454C85.5743 78.3348 84.7941 82.2198 81.3404 84.8354Z" fill="white"/>
</g>
<path d="M217.42 79.58C217.42 79.06 217.427 78.2267 217.44 77.08C217.453 75.9333 217.473 74.6 217.5 73.08C217.54 71.56 217.573 69.96 217.6 68.28C217.64 66.6 217.673 64.9533 217.7 63.34C217.727 61.7267 217.753 60.2533 217.78 58.92C217.82 57.5867 217.847 56.5067 217.86 55.68C217.873 54.84 217.88 54.38 217.88 54.3C218.573 54.2467 219.393 54.1867 220.34 54.12C221.3 54.0533 222.327 54 223.42 53.96C224.513 53.9067 225.593 53.88 226.66 53.88C228.18 53.88 229.527 54.0867 230.7 54.5C231.887 54.9 232.82 55.5467 233.5 56.44C234.18 57.32 234.52 58.48 234.52 59.92C234.52 60.96 234.28 61.9 233.8 62.74C233.333 63.5667 232.747 64.2467 232.04 64.78C231.347 65.3133 230.667 65.6533 230 65.8C230.067 65.8 230.133 65.8 230.2 65.8C230.28 65.8 230.373 65.8 230.48 65.8C231.653 65.8667 232.693 66.1467 233.6 66.64C234.52 67.1333 235.24 67.8 235.76 68.64C236.293 69.48 236.56 70.4533 236.56 71.56C236.56 73.3067 236.207 74.7333 235.5 75.84C234.793 76.9333 233.8 77.78 232.52 78.38C231.24 78.9667 229.727 79.3733 227.98 79.6C226.247 79.8267 224.347 79.94 222.28 79.94C221.36 79.94 220.473 79.9133 219.62 79.86C218.767 79.7933 218.033 79.7 217.42 79.58ZM223.2 74.74C223.307 74.74 223.447 74.74 223.62 74.74C223.793 74.74 223.987 74.74 224.2 74.74C225.08 74.74 225.94 74.6933 226.78 74.6C227.633 74.5067 228.4 74.3333 229.08 74.08C229.773 73.8267 230.327 73.48 230.74 73.04C231.153 72.5867 231.36 72.0067 231.36 71.3C231.36 70.8067 231.247 70.3867 231.02 70.04C230.807 69.68 230.487 69.3867 230.06 69.16C229.633 68.9333 229.107 68.7667 228.48 68.66C227.867 68.5533 227.153 68.5 226.34 68.5C226.113 68.5 225.807 68.5067 225.42 68.52C225.033 68.52 224.633 68.5333 224.22 68.56C223.807 68.5733 223.447 68.6 223.14 68.64L223.2 74.74ZM223.06 64.18C224.02 64.18 224.78 64.1533 225.34 64.1C225.9 64.0467 226.367 63.9333 226.74 63.76C227.527 63.5867 228.227 63.2333 228.84 62.7C229.453 62.1533 229.76 61.4733 229.76 60.66C229.76 59.7 229.447 59 228.82 58.56C228.193 58.12 227.373 57.9 226.36 57.9C225.787 57.9 225.187 57.9333 224.56 58C223.933 58.0667 223.407 58.1333 222.98 58.2L223.06 64.18ZM257.441 80.3C257.135 80.3 256.721 80.2933 256.201 80.28C255.695 80.2667 255.148 80.2467 254.561 80.22C253.975 80.1933 253.408 80.1667 252.861 80.14C252.315 80.1267 251.861 80.1067 251.501 80.08C251.635 79.2933 251.828 78.2667 252.081 77C252.348 75.7333 252.648 74.3133 252.981 72.74C253.328 71.1667 253.695 69.52 254.081 67.8C254.481 66.08 254.881 64.3733 255.281 62.68C255.695 60.9867 256.095 59.3867 256.481 57.88C256.868 56.36 257.215 55.0333 257.521 53.9C258.695 53.74 259.915 53.6 261.181 53.48C262.448 53.36 263.695 53.3 264.921 53.3C265.575 53.3 266.228 53.32 266.881 53.36C267.535 53.4 268.175 53.46 268.801 53.54C269.068 54.7133 269.328 56.08 269.581 57.64C269.848 59.1867 270.115 61.0067 270.381 63.1C270.648 65.1933 270.915 67.6267 271.181 70.4C271.448 73.16 271.715 76.34 271.981 79.94C271.581 80.0067 271.021 80.0667 270.301 80.12C269.595 80.1733 268.855 80.2133 268.081 80.24C267.308 80.28 266.621 80.3 266.021 80.3C265.995 79.9133 265.968 79.4533 265.941 78.92C265.915 78.3733 265.888 77.7867 265.861 77.16C265.835 76.5333 265.808 75.9067 265.781 75.28C265.755 74.64 265.728 74.0333 265.701 73.46C265.675 72.8733 265.655 72.3667 265.641 71.94C265.215 71.94 264.735 71.9533 264.201 71.98C263.668 72.0067 263.121 72.04 262.561 72.08C262.001 72.1067 261.468 72.1467 260.961 72.2C260.468 72.24 260.035 72.28 259.661 72.32C259.288 72.36 259.028 72.3933 258.881 72.42C258.668 73.4067 258.461 74.4 258.261 75.4C258.075 76.3867 257.908 77.3133 257.761 78.18C257.628 79.0333 257.521 79.74 257.441 80.3ZM259.621 67.58C259.981 67.5133 260.521 67.4467 261.241 67.38C261.975 67.3 262.735 67.2333 263.521 67.18C264.321 67.1267 264.981 67.0933 265.501 67.08C265.475 66.7467 265.435 66.1733 265.381 65.36C265.341 64.5333 265.288 63.6333 265.221 62.66C265.168 61.6733 265.108 60.76 265.041 59.92C264.988 59.08 264.928 58.4733 264.861 58.1C264.621 58.1 264.261 58.1133 263.781 58.14C263.315 58.1667 262.861 58.2 262.421 58.24C261.981 58.28 261.668 58.3067 261.481 58.32C261.401 58.6933 261.288 59.2267 261.141 59.92C260.995 60.6133 260.835 61.4 260.661 62.28C260.488 63.16 260.308 64.06 260.121 64.98C259.935 65.8867 259.768 66.7533 259.621 67.58ZM288.342 80.64C288.342 79.9467 288.322 78.9933 288.282 77.78C288.242 76.5533 288.196 75.1533 288.142 73.58C288.089 72.0067 288.022 70.3467 287.942 68.6C287.862 66.8533 287.782 65.1067 287.702 63.36C287.622 61.6 287.542 59.9267 287.462 58.34C287.382 56.7533 287.302 55.3333 287.222 54.08C287.622 54 288.082 53.9467 288.602 53.92C289.136 53.88 289.636 53.86 290.102 53.86C290.662 53.86 291.182 53.88 291.662 53.92C292.142 53.96 292.516 54.0067 292.782 54.06C292.796 54.3933 292.816 54.9467 292.842 55.72C292.882 56.4933 292.922 57.3933 292.962 58.42C293.016 59.4333 293.069 60.48 293.122 61.56C293.176 62.64 293.229 63.6467 293.282 64.58C293.856 64.1 294.489 63.4933 295.182 62.76C295.889 62.0133 296.622 61.1733 297.382 60.24C298.142 59.2933 298.882 58.28 299.602 57.2C300.322 56.12 300.989 55.0133 301.602 53.88C302.496 54.5733 303.389 55.1933 304.282 55.74C305.176 56.2733 305.816 56.64 306.202 56.84C306.016 57.2133 305.676 57.76 305.182 58.48C304.702 59.1867 304.109 59.98 303.402 60.86C302.709 61.74 301.936 62.6333 301.082 63.54C300.242 64.4467 299.362 65.2733 298.442 66.02C299.122 66.7667 299.816 67.6 300.522 68.52C301.242 69.4267 301.929 70.3533 302.582 71.3C303.236 72.2333 303.836 73.1267 304.382 73.98C304.942 74.82 305.409 75.5667 305.782 76.22C306.156 76.86 306.409 77.3267 306.542 77.62C306.236 77.82 305.789 78.08 305.202 78.4C304.616 78.72 303.989 79.0333 303.322 79.34C302.669 79.6467 302.082 79.88 301.562 80.04C301.442 79.7467 301.216 79.2933 300.882 78.68C300.562 78.0533 300.169 77.3333 299.702 76.52C299.236 75.7067 298.729 74.8667 298.182 74C297.649 73.12 297.102 72.28 296.542 71.48C295.996 70.6667 295.462 69.96 294.942 69.36C294.729 69.5333 294.502 69.6933 294.262 69.84C294.022 69.9867 293.809 70.1133 293.622 70.22C293.689 71.1 293.756 72.0733 293.822 73.14C293.889 74.1933 293.949 75.2133 294.002 76.2C294.056 77.1867 294.096 78.0333 294.122 78.74C294.162 79.4333 294.182 79.8733 294.182 80.06C293.956 80.0733 293.529 80.1067 292.902 80.16C292.276 80.2267 291.556 80.3 290.742 80.38C289.929 80.4733 289.129 80.56 288.342 80.64ZM331.841 80.66C329.494 80.66 327.648 80.1067 326.301 79C324.968 77.8933 323.981 76.3267 323.341 74.3C322.781 72.6067 322.421 70.58 322.261 68.22C322.114 65.8467 322.041 63.18 322.041 60.22C322.041 59.6467 322.048 59.0467 322.061 58.42C322.074 57.7933 322.088 57.16 322.101 56.52C322.128 55.88 322.154 55.2667 322.181 54.68C322.208 54.0933 322.228 53.56 322.241 53.08C322.721 53.0267 323.201 52.9867 323.681 52.96C324.174 52.92 324.648 52.9 325.101 52.9C325.701 52.9 326.294 52.92 326.881 52.96C327.481 53 328.008 53.0467 328.461 53.1C328.368 54.1267 328.288 55.2533 328.221 56.48C328.154 57.6933 328.101 58.9267 328.061 60.18C328.034 61.42 328.021 62.62 328.021 63.78C328.021 65.1667 328.061 66.4 328.141 67.48C328.221 68.56 328.354 69.4933 328.541 70.28C328.848 71.56 329.301 72.5067 329.901 73.12C330.501 73.7333 331.274 74.04 332.221 74.04C333.208 74.04 333.981 73.7 334.541 73.02C335.114 72.34 335.521 71.3733 335.761 70.12C336.014 68.8667 336.141 67.38 336.141 65.66C336.141 65.1133 336.128 64.42 336.101 63.58C336.088 62.74 336.068 61.84 336.041 60.88C336.014 59.9067 335.974 58.94 335.921 57.98C335.881 57.02 335.834 56.1467 335.781 55.36C335.728 54.56 335.668 53.9133 335.601 53.42C336.068 53.42 336.608 53.44 337.221 53.48C337.834 53.52 338.441 53.5667 339.041 53.62C339.641 53.66 340.168 53.7133 340.621 53.78C341.074 53.8333 341.374 53.88 341.521 53.92C341.628 54.6533 341.714 55.46 341.781 56.34C341.861 57.22 341.921 58.1333 341.961 59.08C342.014 60.0267 342.041 60.9667 342.041 61.9C342.041 64.5533 341.908 67.02 341.641 69.3C341.374 71.5667 340.881 73.5533 340.161 75.26C339.441 76.9533 338.408 78.28 337.061 79.24C335.714 80.1867 333.974 80.66 331.841 80.66ZM358.823 79.6C358.863 78.8667 358.903 77.8667 358.943 76.6C358.983 75.3333 359.01 73.9067 359.023 72.32C359.05 70.7333 359.063 69.0933 359.063 67.4C359.063 65.7067 359.05 64.04 359.023 62.4C359.01 60.7467 358.983 59.2133 358.943 57.8C358.903 56.3867 358.863 55.2067 358.823 54.26C359.157 54.22 359.677 54.1733 360.383 54.12C361.09 54.0533 361.823 54.02 362.583 54.02C362.97 54.02 363.417 54.0333 363.923 54.06C364.443 54.0867 364.79 54.12 364.963 54.16C365.003 54.9333 365.023 55.9 365.023 57.06C365.023 58.2067 365.01 59.48 364.983 60.88C364.97 62.2667 364.943 63.7133 364.903 65.22C364.863 66.7267 364.81 68.2133 364.743 69.68C364.717 70.5333 364.683 71.3467 364.643 72.12C364.603 72.88 364.563 73.52 364.523 74.04C365.523 73.9733 366.557 73.92 367.623 73.88C368.703 73.8267 369.797 73.7867 370.903 73.76C372.01 73.7333 373.103 73.72 374.183 73.72C374.223 74.0267 374.257 74.5133 374.283 75.18C374.31 75.8333 374.33 76.5267 374.343 77.26C374.37 77.9933 374.377 78.6267 374.363 79.16C372.803 79.36 371.25 79.5067 369.703 79.6C368.17 79.6933 366.71 79.7467 365.323 79.76C364.137 79.7867 362.99 79.7867 361.883 79.76C360.777 79.72 359.757 79.6667 358.823 79.6ZM402.652 79.6C402.692 78.8667 402.732 77.8667 402.772 76.6C402.812 75.3333 402.838 73.9067 402.852 72.32C402.878 70.7333 402.892 69.0933 402.892 67.4C402.892 65.7067 402.878 64.04 402.852 62.4C402.838 60.7467 402.812 59.2133 402.772 57.8C402.732 56.3867 402.692 55.2067 402.652 54.26C402.985 54.22 403.505 54.1733 404.212 54.12C404.918 54.0533 405.652 54.02 406.412 54.02C406.798 54.02 407.245 54.0333 407.752 54.06C408.272 54.0867 408.618 54.12 408.792 54.16C408.832 54.9333 408.852 55.9 408.852 57.06C408.852 58.2067 408.838 59.48 408.812 60.88C408.798 62.2667 408.772 63.7133 408.732 65.22C408.692 66.7267 408.638 68.2133 408.572 69.68C408.545 70.5333 408.512 71.3467 408.472 72.12C408.432 72.88 408.392 73.52 408.352 74.04C409.352 73.9733 410.385 73.92 411.452 73.88C412.532 73.8267 413.625 73.7867 414.732 73.76C415.838 73.7333 416.932 73.72 418.012 73.72C418.052 74.0267 418.085 74.5133 418.112 75.18C418.138 75.8333 418.158 76.5267 418.172 77.26C418.198 77.9933 418.205 78.6267 418.192 79.16C416.632 79.36 415.078 79.5067 413.532 79.6C411.998 79.6933 410.538 79.7467 409.152 79.76C407.965 79.7867 406.818 79.7867 405.712 79.76C404.605 79.72 403.585 79.6667 402.652 79.6ZM438.535 80.3C438.228 80.3 437.815 80.2933 437.295 80.28C436.788 80.2667 436.242 80.2467 435.655 80.22C435.068 80.1933 434.502 80.1667 433.955 80.14C433.408 80.1267 432.955 80.1067 432.595 80.08C432.728 79.2933 432.922 78.2667 433.175 77C433.442 75.7333 433.742 74.3133 434.075 72.74C434.422 71.1667 434.788 69.52 435.175 67.8C435.575 66.08 435.975 64.3733 436.375 62.68C436.788 60.9867 437.188 59.3867 437.575 57.88C437.962 56.36 438.308 55.0333 438.615 53.9C439.788 53.74 441.008 53.6 442.275 53.48C443.542 53.36 444.788 53.3 446.015 53.3C446.668 53.3 447.322 53.32 447.975 53.36C448.628 53.4 449.268 53.46 449.895 53.54C450.162 54.7133 450.422 56.08 450.675 57.64C450.942 59.1867 451.208 61.0067 451.475 63.1C451.742 65.1933 452.008 67.6267 452.275 70.4C452.542 73.16 452.808 76.34 453.075 79.94C452.675 80.0067 452.115 80.0667 451.395 80.12C450.688 80.1733 449.948 80.2133 449.175 80.24C448.402 80.28 447.715 80.3 447.115 80.3C447.088 79.9133 447.062 79.4533 447.035 78.92C447.008 78.3733 446.982 77.7867 446.955 77.16C446.928 76.5333 446.902 75.9067 446.875 75.28C446.848 74.64 446.822 74.0333 446.795 73.46C446.768 72.8733 446.748 72.3667 446.735 71.94C446.308 71.94 445.828 71.9533 445.295 71.98C444.762 72.0067 444.215 72.04 443.655 72.08C443.095 72.1067 442.562 72.1467 442.055 72.2C441.562 72.24 441.128 72.28 440.755 72.32C440.382 72.36 440.122 72.3933 439.975 72.42C439.762 73.4067 439.555 74.4 439.355 75.4C439.168 76.3867 439.002 77.3133 438.855 78.18C438.722 79.0333 438.615 79.74 438.535 80.3ZM440.715 67.58C441.075 67.5133 441.615 67.4467 442.335 67.38C443.068 67.3 443.828 67.2333 444.615 67.18C445.415 67.1267 446.075 67.0933 446.595 67.08C446.568 66.7467 446.528 66.1733 446.475 65.36C446.435 64.5333 446.382 63.6333 446.315 62.66C446.262 61.6733 446.202 60.76 446.135 59.92C446.082 59.08 446.022 58.4733 445.955 58.1C445.715 58.1 445.355 58.1133 444.875 58.14C444.408 58.1667 443.955 58.2 443.515 58.24C443.075 58.28 442.762 58.3067 442.575 58.32C442.495 58.6933 442.382 59.2267 442.235 59.92C442.088 60.6133 441.928 61.4 441.755 62.28C441.582 63.16 441.402 64.06 441.215 64.98C441.028 65.8867 440.862 66.7533 440.715 67.58ZM478.716 80.66C476.369 80.66 474.523 80.1067 473.176 79C471.843 77.8933 470.856 76.3267 470.216 74.3C469.656 72.6067 469.296 70.58 469.136 68.22C468.989 65.8467 468.916 63.18 468.916 60.22C468.916 59.6467 468.923 59.0467 468.936 58.42C468.949 57.7933 468.963 57.16 468.976 56.52C469.003 55.88 469.029 55.2667 469.056 54.68C469.083 54.0933 469.103 53.56 469.116 53.08C469.596 53.0267 470.076 52.9867 470.556 52.96C471.049 52.92 471.523 52.9 471.976 52.9C472.576 52.9 473.169 52.92 473.756 52.96C474.356 53 474.883 53.0467 475.336 53.1C475.243 54.1267 475.163 55.2533 475.096 56.48C475.029 57.6933 474.976 58.9267 474.936 60.18C474.909 61.42 474.896 62.62 474.896 63.78C474.896 65.1667 474.936 66.4 475.016 67.48C475.096 68.56 475.229 69.4933 475.416 70.28C475.723 71.56 476.176 72.5067 476.776 73.12C477.376 73.7333 478.149 74.04 479.096 74.04C480.083 74.04 480.856 73.7 481.416 73.02C481.989 72.34 482.396 71.3733 482.636 70.12C482.889 68.8667 483.016 67.38 483.016 65.66C483.016 65.1133 483.003 64.42 482.976 63.58C482.963 62.74 482.943 61.84 482.916 60.88C482.889 59.9067 482.849 58.94 482.796 57.98C482.756 57.02 482.709 56.1467 482.656 55.36C482.603 54.56 482.543 53.9133 482.476 53.42C482.943 53.42 483.483 53.44 484.096 53.48C484.709 53.52 485.316 53.5667 485.916 53.62C486.516 53.66 487.043 53.7133 487.496 53.78C487.949 53.8333 488.249 53.88 488.396 53.92C488.503 54.6533 488.589 55.46 488.656 56.34C488.736 57.22 488.796 58.1333 488.836 59.08C488.889 60.0267 488.916 60.9667 488.916 61.9C488.916 64.5533 488.783 67.02 488.516 69.3C488.249 71.5667 487.756 73.5533 487.036 75.26C486.316 76.9533 485.283 78.28 483.936 79.24C482.589 80.1867 480.849 80.66 478.716 80.66ZM505.998 80.64C505.998 79.9467 505.978 78.9933 505.938 77.78C505.898 76.5533 505.852 75.1533 505.798 73.58C505.745 72.0067 505.678 70.3467 505.598 68.6C505.518 66.8533 505.438 65.1067 505.358 63.36C505.278 61.6 505.198 59.9267 505.118 58.34C505.038 56.7533 504.958 55.3333 504.878 54.08C505.278 54 505.738 53.9467 506.258 53.92C506.792 53.88 507.292 53.86 507.758 53.86C508.318 53.86 508.838 53.88 509.318 53.92C509.798 53.96 510.172 54.0067 510.438 54.06C510.452 54.3933 510.472 54.9467 510.498 55.72C510.538 56.4933 510.578 57.3933 510.618 58.42C510.672 59.4333 510.725 60.48 510.778 61.56C510.832 62.64 510.885 63.6467 510.938 64.58C511.512 64.1 512.145 63.4933 512.838 62.76C513.545 62.0133 514.278 61.1733 515.038 60.24C515.798 59.2933 516.538 58.28 517.258 57.2C517.978 56.12 518.645 55.0133 519.258 53.88C520.152 54.5733 521.045 55.1933 521.938 55.74C522.832 56.2733 523.472 56.64 523.858 56.84C523.672 57.2133 523.332 57.76 522.838 58.48C522.358 59.1867 521.765 59.98 521.058 60.86C520.365 61.74 519.592 62.6333 518.738 63.54C517.898 64.4467 517.018 65.2733 516.098 66.02C516.778 66.7667 517.472 67.6 518.178 68.52C518.898 69.4267 519.585 70.3533 520.238 71.3C520.892 72.2333 521.492 73.1267 522.038 73.98C522.598 74.82 523.065 75.5667 523.438 76.22C523.812 76.86 524.065 77.3267 524.198 77.62C523.892 77.82 523.445 78.08 522.858 78.4C522.272 78.72 521.645 79.0333 520.978 79.34C520.325 79.6467 519.738 79.88 519.218 80.04C519.098 79.7467 518.872 79.2933 518.538 78.68C518.218 78.0533 517.825 77.3333 517.358 76.52C516.892 75.7067 516.385 74.8667 515.838 74C515.305 73.12 514.758 72.28 514.198 71.48C513.652 70.6667 513.118 69.96 512.598 69.36C512.385 69.5333 512.158 69.6933 511.918 69.84C511.678 69.9867 511.465 70.1133 511.278 70.22C511.345 71.1 511.412 72.0733 511.478 73.14C511.545 74.1933 511.605 75.2133 511.658 76.2C511.712 77.1867 511.752 78.0333 511.778 78.74C511.818 79.4333 511.838 79.8733 511.838 80.06C511.612 80.0733 511.185 80.1067 510.558 80.16C509.932 80.2267 509.212 80.3 508.398 80.38C507.585 80.4733 506.785 80.56 505.998 80.64Z" fill="white"/>
<defs>
<clipPath id="clip0_27_4">
<rect width="194" height="133" fill="white"/>
</clipPath>
</defs>
</svg>
